<?xml version="1.0" encoding="UTF-8" standalone="no"?>
<svg
   xmlns:dc="http://purl.org/dc/elements/1.1/"
   xmlns:cc="http://creativecommons.org/ns#"
   xmlns:rdf="http://www.w3.org/1999/02/22-rdf-syntax-ns#"
   xmlns:svg="http://www.w3.org/2000/svg"
   xmlns="http://www.w3.org/2000/svg"
   xmlns:sodipodi="http://sodipodi.sourceforge.net/DTD/sodipodi-0.dtd"
   xmlns:inkscape="http://www.inkscape.org/namespaces/inkscape"
   id="Ebene_1"
   enable-background="new 0 0 566.924 121.752"
   version="1.1"
   y="0px"
   x="0px"
   sodipodi:docname="apple2.svg"
   inkscape:version="0.92.5 (2060ec1f9f, 2020-04-08)"
   width="105.91804"
   height="34">
  <metadata
     id="metadata24">
    <rdf:RDF>
      <cc:Work
         rdf:about="">
        <dc:format>image/svg+xml</dc:format>
        <dc:type
           rdf:resource="http://purl.org/dc/dcmitype/StillImage" />
        <dc:title></dc:title>
      </cc:Work>
    </rdf:RDF>
  </metadata>
  <defs
     id="defs22" />
  <sodipodi:namedview
     pagecolor="#ffffff"
     bordercolor="#666666"
     borderopacity="1"
     objecttolerance="10"
     gridtolerance="10"
     guidetolerance="10"
     inkscape:pageopacity="0"
     inkscape:pageshadow="2"
     inkscape:window-width="1440"
     inkscape:window-height="837"
     id="namedview20"
     showgrid="false"
     inkscape:zoom="1.3871079"
     inkscape:cx="35.507684"
     inkscape:cy="-10.834084"
     inkscape:window-x="0"
     inkscape:window-y="0"
     inkscape:window-maximized="1"
     inkscape:current-layer="Ebene_1"
     fit-margin-top="0"
     fit-margin-left="0"
     fit-margin-right="0"
     fit-margin-bottom="0" />
  <ellipse
     style="fill:#aa0000;stroke:none;stroke-width:2.40405297;stroke-miterlimit:4;stroke-dasharray:none"
     id="path915"
     cx="18.180439"
     cy="-1.7245253"
     rx="1.8689756"
     ry="5.0761089"
     transform="matrix(0.94757783,0.31952506,-0.52977326,0.84813931,0,0)" />
  <path
     style="fill:#aa0000;stroke:none;stroke-width:0.64521801px;stroke-linecap:butt;stroke-linejoin:miter;stroke-opacity:1"
     d="M 15.350065,9.8120199 12.442856,8.1839829 9.6519346,7.3699639 8.023897,7.4862529 5.9307066,8.1839829 4.0700927,9.3468669 1.8606139,11.440057 0.69773042,13.649537 0.34886488,15.044997 0,16.673034 l 0.11628829,2.907209 0.69773043,3.488651 0.69772968,2.79092 0.930307,2.093192 1.7443256,2.674632 2.0931907,2.442056 1.628037,0.930307 H 10.0008 l 1.744325,-0.930307 1.046595,-0.697731 1.395461,-0.232576 0.697731,0.116288"
     id="path917"
     inkscape:connector-curvature="0" />
  <path
     style="fill:none;stroke:none;stroke-width:0.64521801px;stroke-linecap:butt;stroke-linejoin:miter;stroke-opacity:1"
     d="M 16.745525,32.371963 14.884912,32.255675 Z"
     id="path919"
     inkscape:connector-curvature="0" />
  <path
     style="fill:none;stroke:none;stroke-width:0.64521801px;stroke-linecap:butt;stroke-linejoin:miter;stroke-opacity:1"
     d="M 18.024697,33.185982 16.745525,32.371963 Z"
     id="path921"
     inkscape:connector-curvature="0" />
  <path
     style="fill:none;stroke:none;stroke-width:0.64521801px;stroke-linecap:butt;stroke-linejoin:miter;stroke-opacity:1"
     d="m 18.024697,33.185982 2.442056,0.581442 1.976902,-0.465154 1.395461,-1.046595 2.09319,-1.628037 1.162883,-1.860614 0.930307,-2.790921 0.581443,-1.976902"
     id="path923"
     inkscape:connector-curvature="0" />
  <path
     style="fill:none;stroke:none;stroke-width:0.64521801px;stroke-linecap:butt;stroke-linejoin:miter;stroke-opacity:1"
     d="M 28.606939,23.999201 27.095189,10.858616 24.653134,7.7188289 23.141385,7.1373879 20.69933,7.2536769 c -0.617432,0.246972 -0.372698,0.232576 -0.697731,0.232576 -0.03876,0 -0.08888,-0.02741 -0.116288,0 -0.02741,0.02741 0.02741,0.08888 0,0.116288 -0.02741,0.02741 -0.07753,0 -0.116288,0 -0.03876,0 -0.07753,0 -0.116289,0"
     id="path925"
     inkscape:connector-curvature="0" />
  <path
     style="fill:none;stroke:none;stroke-width:0.64521801px;stroke-linecap:butt;stroke-linejoin:miter;stroke-opacity:1"
     d="m 19.652734,7.6025409 -1.511748,0.930307 -2.790921,1.279172"
     id="path927"
     inkscape:connector-curvature="0" />
  <path
     style="fill:none;stroke:none;stroke-width:0.87903023;stroke-miterlimit:4;stroke-dasharray:none"
     d="M 8.1629108,33.369002 C 7.6421777,33.226462 6.4272181,32.634104 6.3313314,32.47601 6.2833881,32.396953 6.1471465,32.296529 6.0285824,32.252844 5.8837115,32.199463 5.8380545,32.10816 5.8893682,31.974437 c 0.041996,-0.109439 0.037968,-0.160594 -0.00894,-0.11368 -0.098348,0.09835 -0.7410114,-0.48066 -0.7410114,-0.667614 0,-0.06859 -0.1024206,-0.188666 -0.2276013,-0.266843 -0.2915708,-0.182089 -1.400436,-1.820192 -1.400436,-2.068834 0,-0.103747 -0.1506158,-0.339246 -0.3347017,-0.523332 -0.1840889,-0.184085 -0.3061131,-0.363293 -0.2711675,-0.398239 0.034945,-0.03495 0.00918,-0.181201 -0.057263,-0.325012 C 2.7818059,27.467074 2.5851938,27.035431 2.4113307,26.65168 2.2374677,26.267929 2.0475439,25.863084 1.9892781,25.752023 1.931015,25.640963 1.8833404,25.443085 1.8833404,25.312292 c 0,-0.130792 -0.070736,-0.264948 -0.1571925,-0.298125 -0.09918,-0.03806 -0.1358745,-0.171841 -0.099428,-0.362499 0.035881,-0.187707 0.012949,-0.274479 -0.060541,-0.229059 -0.066932,0.04136 -0.1484917,-0.09 -0.1878146,-0.30251 C 1.3401353,23.913503 1.1231594,22.854865 0.89619433,21.767568 0.60120255,20.354385 0.4627633,19.34145 0.41070326,18.215309 0.34375282,16.767059 0.36320873,16.531009 0.65186635,15.289725 0.85753798,14.405287 1.148812,13.564733 1.4962071,12.853133 1.9530608,11.91732 2.1737621,11.624351 3.0887619,10.739096 3.6729746,10.173876 4.4387793,9.5265459 4.7905522,9.3005829 c 0.3517721,-0.225962 0.7704101,-0.494942 0.9303065,-0.597733 0.1598964,-0.10279 0.709359,-0.336886 1.2210282,-0.520211 0.9379846,-0.33607 1.5499475,-0.387697 2.849065,-0.240354 0.2878141,0.03264 0.6893651,0.07675 0.8923351,0.09801 0.202971,0.02126 0.428362,0.07533 0.50087,0.120138 0.07251,0.04481 0.260816,0.09563 0.418464,0.112941 0.157648,0.01731 0.381179,0.117028 0.496738,0.221607 0.115559,0.104579 0.323728,0.190144 0.462598,0.190144 0.138871,0 0.252493,0.05233 0.252493,0.116288 0,0.06396 0.03925,0.10364 0.08721,0.08818 0.04797,-0.01546 0.530793,0.228271 1.072941,0.541619 0.542149,0.313349 1.130834,0.5866201 1.308191,0.6072711 0.44154,0.05141 3.757747,-1.4862641 4.160089,-1.9289701 0.03198,-0.03519 0.188969,-0.07325 0.348865,-0.08458 0.571466,-0.04049 1.330767,-0.250472 1.373927,-0.379951 0.04653,-0.139584 1.366962,-0.05208 1.591427,0.105465 0.06396,0.04489 0.419623,0.151673 0.790365,0.237297 0.370743,0.08562 0.700892,0.199065 0.733666,0.252094 0.03277,0.05303 0.154205,0.09641 0.269849,0.09641 0.115642,0 0.343957,0.196237 0.507366,0.436082 0.163408,0.239844 0.607817,0.828261 0.987576,1.3075921 l 0.690471,0.871511 -0.864468,0.930517 c -0.48031,0.517007 -0.89293,1.072825 -0.928515,1.250752 -0.03523,0.176129 -0.109836,0.320235 -0.165799,0.320235 -0.05597,0 -0.101754,0.124416 -0.101754,0.276482 0,0.152065 -0.0728,0.336902 -0.161782,0.410749 -0.255634,0.212158 -0.331133,0.750818 -0.384502,2.743275 -0.05023,1.875235 0.03916,2.552633 0.392516,2.97451 0.08457,0.100975 0.157245,0.257964 0.161497,0.348866 0.02557,0.546822 1.778095,2.816079 2.288967,2.963864 0.143907,0.04163 0.261649,0.121604 0.261649,0.177721 0,0.05612 0.209319,0.240553 0.465154,0.409857 0.255834,0.169303 0.465153,0.395327 0.465153,0.502274 0,0.106948 -0.287814,1.07124 -0.639586,2.14287 -0.351772,1.071631 -0.639586,2.026857 -0.639586,2.122726 0,0.09587 -0.0497,0.143588 -0.110454,0.106044 -0.108947,-0.06733 -0.328669,0.235352 -0.335041,0.461547 -0.0018,0.06396 -0.141474,0.273277 -0.31038,0.465154 -0.168908,0.191875 -0.485358,0.574764 -0.703223,0.850863 -0.344576,0.436678 -2.95986,2.572161 -2.95986,2.416843 0,-0.03173 -0.15699,-0.003 -0.348865,0.06393 -0.191876,0.06689 -0.348918,0.155745 -0.348982,0.197457 -1.16e-4,0.10032 -2.371045,0.06648 -2.965237,-0.04233 -0.255834,-0.04684 -0.779132,-0.273674 -1.162883,-0.504062 -0.824022,-0.494707 -0.723094,-0.467583 -2.267624,-0.609428 -1.341036,-0.123158 -2.168281,-0.05898 -2.79092,0.216522 -0.223855,0.09905 -0.450476,0.184821 -0.5036,0.190603 -0.05313,0.0058 -0.157785,0.08901 -0.232577,0.184944 -0.07479,0.09594 -0.240646,0.191623 -0.368563,0.212631 -0.127917,0.02101 -0.384523,0.112587 -0.570236,0.203505 -0.185712,0.09092 -0.423813,0.165306 -0.529112,0.165306 -0.105299,0 -0.248136,0.05668 -0.317415,0.125962 -0.1249448,0.124946 -1.5626016,0.229017 -1.8974551,0.137356 z"
     id="path929"
     inkscape:connector-curvature="0" />
  <path
     style="fill:#aa0000;stroke:none;stroke-width:0.87903023;stroke-miterlimit:4;stroke-dasharray:none"
     d="m 18.765104,33.384444 c -0.543648,-0.143915 -1.244672,-0.425346 -1.557832,-0.625401 -0.31316,-0.200057 -0.614055,-0.33613 -0.668658,-0.302383 -0.05461,0.03375 -0.09928,0.0059 -0.09928,-0.06179 0,-0.07564 -0.333812,-0.123151 -0.865301,-0.123151 -0.475914,0 -0.887122,-0.03925 -0.913795,-0.08722 -0.02667,-0.04797 0.04603,-4.430587 0.161548,-9.739151 0.115524,-5.308564 0.212753,-10.197036 0.216065,-10.863271 0.0033,-0.666236 0.03664,-1.180722 0.07406,-1.143302 0.07987,0.07987 2.906289,-1.2428271 3.620201,-1.6941681 0.846566,-0.535207 1.610059,-0.758479 2.86383,-0.837486 1.077423,-0.06789 1.239931,-0.05002 1.851148,0.203615 0.618671,0.256727 0.758103,0.392153 1.818784,1.766529 l 0.884535,1.0733021 0.509798,0.645751 -0.119708,0.09688 -0.994515,1.061545 c -0.62523,0.667369 -2.084124,2.719455 -1.704221,5.773976 0.30538,2.455338 2.340945,4.605222 3.818725,5.156595 0.455441,0.16993 0.359927,0.248687 0.275693,0.462325 -0.256797,0.651298 -0.185593,0.501163 -0.795503,2.582577 -0.928047,3.16711 -1.320719,3.578766 -3.468217,5.242006 -1.474206,1.141774 -1.751357,1.309963 -2.442055,1.481959 -1.011288,0.251828 -1.279186,0.244251 -2.465303,-0.06974 z"
     id="path931"
     inkscape:connector-curvature="0"
     sodipodi:nodetypes="cccsscsccsscscccssssssccc" />
  <path
     style="fill:none;stroke:#aa0000;stroke-width:0.64521801px;stroke-linecap:butt;stroke-linejoin:miter;stroke-opacity:1"
     d="M 14.758569,10.223161 16.984441,9.9172729 16.655528,11.931866 Z"
     id="path933"
     inkscape:connector-curvature="0" />
  <g
     id="g9276"
     transform="matrix(0.59233179,0,0,0.59233179,0.11881406,-0.70831915)">
    <path
       d="m 57.815866,41.652846 h 5.359281 V 19.387865 H 52.020871 q -4.531425,0 -7.712136,3.267854 -3.180712,3.267855 -3.180712,7.929994 0,4.70571 3.13714,7.886421 3.13714,3.180712 7.799279,3.180712 h 3.74714 v -5.359281 h -3.790711 q -2.309284,0 -3.921425,-1.655713 -1.612142,-1.655713 -1.612142,-4.052139 0,-2.439998 1.56857,-4.05214 1.612142,-1.655713 3.964997,-1.655713 l 5.838566,0.04357 z"
       style="font-style:normal;font-variant:normal;font-weight:normal;font-stretch:normal;font-size:40px;line-height:1.25;font-family:'Motter Tektura';-inkscape-font-specification:'Motter Tektura';letter-spacing:0px;word-spacing:0px;fill:#aa0000;fill-opacity:1;stroke:none;stroke-width:1.08899999;stroke-miterlimit:4;stroke-dasharray:none;stroke-opacity:1"
       id="path937"
       inkscape:connector-curvature="0" />
    <path
       d="m 67.967946,47.229984 5.489995,0.04357 v -22.52641 h 5.533567 q 2.527141,0.217857 4.182854,1.87357 1.699284,1.612141 1.699284,3.964997 0,2.396426 -1.655713,4.052139 -1.655713,1.655713 -4.139282,1.655713 h -3.572854 v 5.359281 h 3.572854 q 4.70571,0 7.929993,-3.180712 3.267855,-3.224283 3.267855,-7.886421 0,-4.705711 -3.267855,-7.929994 -3.224283,-3.267854 -8.017136,-3.267854 H 67.967946 Z"
       style="font-style:normal;font-variant:normal;font-weight:normal;font-stretch:normal;font-size:40px;line-height:1.25;font-family:'Motter Tektura';-inkscape-font-specification:'Motter Tektura';letter-spacing:0px;word-spacing:0px;fill:#aa0000;fill-opacity:1;stroke:none;stroke-width:1.08928478"
       id="path939"
       inkscape:connector-curvature="0" />
    <path
       d="m 94.982155,47.229984 5.489995,0.04357 v -22.52641 h 5.53357 q 2.52714,0.217857 4.18285,1.87357 1.69928,1.612141 1.69928,3.964997 0,2.396426 -1.65571,4.052139 -1.65571,1.655713 -4.13928,1.655713 h -3.57285 v 5.359281 h 3.57285 q 4.70571,0 7.92999,-3.180712 3.26786,-3.224283 3.26786,-7.886421 0,-4.705711 -3.26786,-7.929994 -3.22428,-3.267854 -8.01713,-3.267854 H 94.982155 Z"
       style="font-style:normal;font-variant:normal;font-weight:normal;font-stretch:normal;font-size:40px;line-height:1.25;font-family:'Motter Tektura';-inkscape-font-specification:'Motter Tektura';letter-spacing:0px;word-spacing:0px;fill:#aa0000;fill-opacity:1;stroke:none;stroke-width:1.08928478"
       id="path941"
       inkscape:connector-curvature="0" />
    <path
       d="m 121.99637,41.652846 h 5.44643 V 13.941441 h -5.40285 z"
       style="font-style:normal;font-variant:normal;font-weight:normal;font-stretch:normal;font-size:40px;line-height:1.25;font-family:'Motter Tektura';-inkscape-font-specification:'Motter Tektura';letter-spacing:0px;word-spacing:0px;fill:#aa0000;fill-opacity:1;stroke:none;stroke-width:1.08928478"
       id="path943"
       inkscape:connector-curvature="0" />
    <path
       d="m 153.45484,41.652846 0.0436,-5.359281 H 142.3006 q -2.30929,0 -3.92143,-1.655713 -1.61214,-1.655713 -1.61214,-4.052139 0,-2.439998 1.56857,-4.05214 1.61214,-1.655713 3.965,-1.655713 l 5.62071,0.04357 -5.40286,9.324277 h 5.40286 l 5.53356,-9.41142 v -5.446424 l -11.1107,0.08714 q -4.61857,0 -7.79928,3.224283 -3.18071,3.224283 -3.18071,7.886422 0,4.662138 3.13714,7.886421 3.18071,3.180712 7.84285,3.180712 z"
       style="font-style:normal;font-variant:normal;font-weight:normal;font-stretch:normal;font-size:40px;line-height:1.25;font-family:'Motter Tektura';-inkscape-font-specification:'Motter Tektura';letter-spacing:0px;word-spacing:0px;fill:#aa0000;fill-opacity:1;stroke:none;stroke-width:1.08928478"
       id="path945"
       inkscape:connector-curvature="0" />
    <g
       transform="translate(-34.708217,-48.134033)"
       id="text989"
       style="font-style:normal;font-variant:normal;font-weight:normal;font-stretch:normal;font-size:40px;line-height:1.25;font-family:'Motter Tektura';-inkscape-font-specification:'Motter Tektura';letter-spacing:0px;word-spacing:0px;fill:#aa0000;fill-opacity:1;stroke:none"
       aria-label="][">
      <path
         inkscape:connector-curvature="0"
         id="path991"
         style="fill:#aa0000"
         d="m 202.80306,89.746879 v -30.56 h -6.64 v 1.52 h 3.4 v 27.52 h -3.4 v 1.56 z" />
      <path
         inkscape:connector-curvature="0"
         id="path993"
         style="fill:#aa0000"
         d="m 206.56301,89.746879 6.6,0.04 v -1.56 h -3.24 v -27.52 h 3.4 v -1.52 h -6.76 z" />
    </g>
  </g>
</svg>
