<?xml version="1.0" encoding="UTF-8" standalone="no"?>
<svg
   xmlns:dc="http://purl.org/dc/elements/1.1/"
   xmlns:cc="http://creativecommons.org/ns#"
   xmlns:rdf="http://www.w3.org/1999/02/22-rdf-syntax-ns#"
   xmlns:svg="http://www.w3.org/2000/svg"
   xmlns="http://www.w3.org/2000/svg"
   xmlns:sodipodi="http://sodipodi.sourceforge.net/DTD/sodipodi-0.dtd"
   xmlns:inkscape="http://www.inkscape.org/namespaces/inkscape"
   width="354.29205"
   height="61.427074"
   version="1.1"
   viewBox="0 0 93.739932 16.25258"
   id="svg16"
   sodipodi:docname="channelf.svg"
   inkscape:version="0.92.5 (2060ec1f9f, 2020-04-08)">
  <metadata
     id="metadata22">
    <rdf:RDF>
      <cc:Work
         rdf:about="">
        <dc:format>image/svg+xml</dc:format>
        <dc:type
           rdf:resource="http://purl.org/dc/dcmitype/StillImage" />
        <dc:title>Logo Fairchild Channel F</dc:title>
      </cc:Work>
    </rdf:RDF>
  </metadata>
  <defs
     id="defs20" />
  <sodipodi:namedview
     pagecolor="#ffffff"
     bordercolor="#666666"
     borderopacity="1"
     objecttolerance="10"
     gridtolerance="10"
     guidetolerance="10"
     inkscape:pageopacity="0"
     inkscape:pageshadow="2"
     inkscape:window-width="1440"
     inkscape:window-height="837"
     id="namedview18"
     showgrid="false"
     fit-margin-top="0"
     fit-margin-left="0"
     fit-margin-right="0"
     fit-margin-bottom="0"
     inkscape:zoom="1.1351351"
     inkscape:cx="65.496144"
     inkscape:cy="30.832987"
     inkscape:window-x="0"
     inkscape:window-y="0"
     inkscape:window-maximized="1"
     inkscape:current-layer="svg16" />
  <title
     id="title2">Logo Fairchild Channel F</title>
  <g
     id="g10"
     style="fill:#aa0000"
     transform="translate(-2.483068,-1.430317)">
    <path
       d="M 23.339,14.909 V 3.409 H 20.29 V 8.188 H 16.598 V 3.409 h -2.949 v 12.128 h 2.949 v -4.601 h 3.692 v 4.6 h 2.812"
       id="path6"
       inkscape:connector-curvature="0"
       style="fill:#aa0000" />
    <path
       d="m 28.766,3.41 -6.375,12.127 h 3.132 l 2.396,-4.64 h 2.736 v 4.64 h 2.63 V 3.409 Z m 0.687,4.55 1.196,-2.084 0.006,2.084 z M 34.44,3.41 v 12.127 h 2.949 V 9.23 l 4.37,6.302 v 0.005 H 44.4 V 3.409 H 41.352 V 9.901 L 36.762,3.409 36.749,3.423 36.746,3.409 Z m 21.988,0 v 12.127 h 6.968 v -2.835 h -3.82 v -1.655 h 3.643 V 7.9 H 59.577 V 6.244 h 3.82 V 3.41 Z m 7.867,0 v 12.127 h 6.437 V 12.702 H 67.243 V 3.41 Z M 8.656,3.273 a 6.252,6.252 0 0 0 0,12.503 c 2.008,-0.048 3.629,-0.849 4.636,-2.087 l -2.203,-2.153 c -0.568,0.845 -1.652,1.164 -2.41,1.175 a 3.087,3.087 0 0 1 0,-6.174 c 0.962,0.044 1.487,0.248 2.136,0.901 l 0.026,-0.023 0.021,0.02 2.386,-2.147 C 12.009,4.007 10.364,3.288 8.656,3.273 Z M 45.54,3.41 v 12.127 h 2.949 V 9.23 l 4.37,6.302 v 0.005 H 55.5 V 3.409 H 52.452 V 9.901 L 47.862,3.409 47.849,3.423 47.846,3.409 Z M 94.742,2.546 H 94.29 V 3.749 H 94.11 V 2.546 H 93.66 V 2.383 h 1.082 z m 1.481,1.203 H 96.05 v -1.16 l -0.39,1.16 h -0.162 l -0.39,-1.16 v 1.16 H 94.937 V 2.383 h 0.273 l 0.368,1.138 0.373,-1.138 h 0.272 z"
       id="path8"
       inkscape:connector-curvature="0"
       style="fill:#aa0000" />
  </g>
  <path
     d="m 77.224932,1.562683 v 13.06 h 3.36 V 9.6616831 h 4.227 V 6.613683 h -4.227 v -2.07 h 4.227 v -2.981 z"
     id="path12"
     style="fill:#aa0000"
     inkscape:connector-curvature="0" />
  <path
     d="m 81.001932,0.08968297 c 3.07,0.021 8.809,0.455 9.473,1.21600003 0.74,0.848 1.244,4.501 1.221,6.794 -0.023,2.293 -0.488,6.4 -1.487,6.972 -1.088,0.622 -6.14,1.117 -9.207,1.092 -3.067,-0.025 -8.253,-0.297 -9.317,-1.092 -0.881,-0.614 -1.487,-4.722 -1.435,-6.972 0.051,-2.25 0.233,-5.773 1.291,-6.768 0.918,-0.81000003 6.507,-1.26400003 9.461,-1.24300003 z"
     id="path14"
     style="fill:none;stroke:#aa0000;stroke-width:0.176;stroke-linejoin:round"
     inkscape:connector-curvature="0" />
</svg>
