<?xml version="1.0" encoding="UTF-8" standalone="no"?>
<svg
   xmlns:dc="http://purl.org/dc/elements/1.1/"
   xmlns:cc="http://creativecommons.org/ns#"
   xmlns:rdf="http://www.w3.org/1999/02/22-rdf-syntax-ns#"
   xmlns:svg="http://www.w3.org/2000/svg"
   xmlns="http://www.w3.org/2000/svg"
   xmlns:sodipodi="http://sodipodi.sourceforge.net/DTD/sodipodi-0.dtd"
   xmlns:inkscape="http://www.inkscape.org/namespaces/inkscape"
   version="1.1"
   id="svg12"
   sodipodi:docname="coco.svg"
   inkscape:version="0.92.5 (2060ec1f9f, 2020-04-08)"
   width="165.58038"
   height="34">
  <metadata
     id="metadata18">
    <rdf:RDF>
      <cc:Work
         rdf:about="">
        <dc:format>image/svg+xml</dc:format>
        <dc:type
           rdf:resource="http://purl.org/dc/dcmitype/StillImage" />
        <dc:title></dc:title>
      </cc:Work>
    </rdf:RDF>
  </metadata>
  <defs
     id="defs16" />
  <sodipodi:namedview
     pagecolor="#ffffff"
     bordercolor="#666666"
     borderopacity="1"
     objecttolerance="10"
     gridtolerance="10"
     guidetolerance="10"
     inkscape:pageopacity="0"
     inkscape:pageshadow="2"
     inkscape:window-width="1440"
     inkscape:window-height="837"
     id="namedview14"
     showgrid="false"
     inkscape:zoom="0.98083335"
     inkscape:cx="28.20264"
     inkscape:cy="34.674443"
     inkscape:window-x="0"
     inkscape:window-y="0"
     inkscape:window-maximized="1"
     inkscape:current-layer="svg12"
     fit-margin-top="0"
     fit-margin-left="0"
     fit-margin-right="0"
     fit-margin-bottom="0" />
  <g
     id="g10"
     style="fill:#aa0000"
     transform="scale(0.27596731)">
    <path
       id="path3999-4"
       d="m 476.729,123.203 h 49.262 L 600,0 h -49.245 z"
       style="fill:#aa0000;fill-opacity:1;stroke-opacity:1"
       inkscape:connector-curvature="0" />
    <path
       id="path3912-8"
       d="m 192.538,33.612 v 67.134 h 40.281 c 12.53,-2.055 19.696,-9.075 22.422,-20.14 0.025,-8.959 0.005,-17.895 0,-26.854 -2.726,-11.065 -9.892,-18.085 -22.422,-20.14 z m 15.754,13.471 h 17.858 c 5.609,0.995 10.931,2.754 13.472,11.189 l -0.045,17.903 c -2.563,8.423 -7.863,10.194 -13.472,11.189 h -17.857 z"
       style="fill:#aa0000;fill-opacity:1;stroke-width:1.11043px;stroke-linecap:butt;stroke-linejoin:miter;stroke-opacity:1"
       inkscape:connector-curvature="0" />
    <path
       id="path3896"
       d="M 20.159,100.76 V 49.307 H 0.006 L 0,33.646 h 62.701 l -6.722,15.661 -15.673,0.006 v 51.447 z"
       style="fill:#aa0000;fill-opacity:1;stroke-width:1.11043px;stroke-linecap:butt;stroke-linejoin:miter;stroke-opacity:1"
       inkscape:connector-curvature="0" />
    <path
       id="path3900"
       d="m 69.414,33.657 -24.616,67.089 h 20.185 l 7.788,-24.571 7.832,11.189 H 94.03 l 4.476,13.382 h 20.319 L 94.03,33.657 Z m 12.219,17.857 7.921,20.185 H 73.89 Z"
       style="fill:#aa0000;fill-opacity:1;stroke-width:1.11043px;stroke-linecap:butt;stroke-linejoin:miter;stroke-opacity:1"
       inkscape:connector-curvature="0" />
    <path
       id="path3908"
       d="M 120.867,100.76 V 33.646 h 24.669 l 24.626,49.24 v -49.24 h 15.674 l -0.013,67.114 h -24.622 l -24.629,-49.198 -0.007,49.198 z"
       style="fill:#aa0000;fill-opacity:1;stroke-width:1.11043px;stroke-linecap:butt;stroke-linejoin:miter;stroke-opacity:1"
       inkscape:connector-curvature="0" />
    <path
       id="path3991"
       d="M 273.129,69.479 246.282,33.646 h 20.135 l 14.602,22.339 14.531,-22.339 h 22.348 l -26.931,35.721 0.05,31.393 h -17.87 z"
       style="fill:#aa0000;fill-opacity:1;stroke-width:1.11043px;stroke-linecap:butt;stroke-linejoin:miter;stroke-opacity:1"
       inkscape:connector-curvature="0" />
    <path
       id="path3999-4-5"
       d="m 412.059,123.203 h 49.262 L 535.33,0 h -49.245 z"
       style="fill:#aa0000;fill-opacity:1"
       inkscape:connector-curvature="0" />
    <path
       id="path3999-4-5-7"
       d="m 347.389,123.203 h 49.262 L 470.66,0 h -49.246 z"
       style="fill:#aa0000;fill-opacity:1;stroke-opacity:1"
       inkscape:connector-curvature="0" />
  </g>
</svg>
