<?xml version="1.0" encoding="UTF-8" standalone="no"?>
<svg
   xmlns:dc="http://purl.org/dc/elements/1.1/"
   xmlns:cc="http://creativecommons.org/ns#"
   xmlns:rdf="http://www.w3.org/1999/02/22-rdf-syntax-ns#"
   xmlns:svg="http://www.w3.org/2000/svg"
   xmlns="http://www.w3.org/2000/svg"
   xmlns:sodipodi="http://sodipodi.sourceforge.net/DTD/sodipodi-0.dtd"
   xmlns:inkscape="http://www.inkscape.org/namespaces/inkscape"
   version="1.1"
   id="svg3"
   sodipodi:docname="doom.svg"
   inkscape:version="1.0.1 (3bc2e813f5, 2020-09-07)">
  <metadata
     id="metadata9">
    <rdf:RDF>
      <cc:Work
         rdf:about="">
        <dc:format>image/svg+xml</dc:format>
        <dc:type
           rdf:resource="http://purl.org/dc/dcmitype/StillImage" />
      </cc:Work>
    </rdf:RDF>
  </metadata>
  <defs
     id="defs7" />
  <sodipodi:namedview
     pagecolor="#ffffff"
     bordercolor="#666666"
     borderopacity="1"
     objecttolerance="10"
     gridtolerance="10"
     guidetolerance="10"
     inkscape:pageopacity="0"
     inkscape:pageshadow="2"
     inkscape:window-width="1920"
     inkscape:window-height="1017"
     id="namedview5"
     showgrid="false"
     inkscape:zoom="3.9233333"
     inkscape:cx="150"
     inkscape:cy="75"
     inkscape:window-x="-8"
     inkscape:window-y="-8"
     inkscape:window-maximized="1"
     inkscape:current-layer="svg3" />
  <path
     id="path3347"
     d="M 230.87 119.239 L 230.824 73.474 L 223.474 99.042 L 216.135 73.591 L 216.091 108.331 L 192.128 90.436 L 193.944 89.08 L 193.86 0.003 L 216.638 0.062 L 223.465 23.876 L 230.303 0.031 L 264 0.14 L 252.943 8.366 L 252.923 135.797 Z M 11.188 8.345 L 0 0 L 63.062 0.085 L 70.279 5.576 L 70.286 89.05 L 72.198 90.429 L 11.202 136 Z M 48.198 73.468 L 48.174 25.295 L 46.483 23.92 L 33.37 23.982 L 33.341 84.561 Z M 72.147 86.421 L 72.135 5.567 L 79.533 0.048 L 123.799 0.045 L 131.182 5.587 L 131.209 99.147 L 110.274 114.825 Z M 107.21 23.872 L 96.045 23.949 L 94.301 25.283 L 94.325 73.49 L 108.991 84.442 L 109.029 25.31 Z M 133.108 99.235 L 133.054 5.545 L 140.428 0.031 L 184.752 0.073 L 192.173 5.593 L 192.122 86.26 L 154.198 114.806 Z M 169.982 73.458 L 169.977 25.263 L 168.112 23.844 L 156.965 23.88 L 155.172 25.254 L 155.283 84.293 Z"
     style="fill-opacity:1;stroke:none;fill:#aa0000" />
</svg>
