<?xml version="1.0" encoding="UTF-8" standalone="no"?>
<svg
   xmlns:bx="https://boxy-svg.com"
   xmlns:dc="http://purl.org/dc/elements/1.1/"
   xmlns:cc="http://creativecommons.org/ns#"
   xmlns:rdf="http://www.w3.org/1999/02/22-rdf-syntax-ns#"
   xmlns:svg="http://www.w3.org/2000/svg"
   xmlns="http://www.w3.org/2000/svg"
   xmlns:sodipodi="http://sodipodi.sourceforge.net/DTD/sodipodi-0.dtd"
   xmlns:inkscape="http://www.inkscape.org/namespaces/inkscape"
   version="1.1"
   id="svg2"
   sodipodi:docname="msx.svg"
   inkscape:version="1.0.1 (3bc2e813f5, 2020-09-07)">
  <metadata
     id="metadata10">
    <rdf:RDF>
      <cc:Work
         rdf:about="">
        <dc:format>image/svg+xml</dc:format>
        <dc:type
           rdf:resource="http://purl.org/dc/dcmitype/StillImage" />
      </cc:Work>
    </rdf:RDF>
  </metadata>
  <defs
     id="defs8" />
  <sodipodi:namedview
     pagecolor="#ffffff"
     bordercolor="#666666"
     borderopacity="1"
     objecttolerance="10"
     gridtolerance="10"
     guidetolerance="10"
     inkscape:pageopacity="0"
     inkscape:pageshadow="2"
     inkscape:window-width="1920"
     inkscape:window-height="1017"
     id="namedview6"
     showgrid="false"
     inkscape:zoom="3.9233333"
     inkscape:cx="150"
     inkscape:cy="75"
     inkscape:window-x="-8"
     inkscape:window-y="-8"
     inkscape:window-maximized="1"
     inkscape:current-layer="svg2" />
  <g
     transform="matrix(0.44, 0, 0, 0.437707, 0, 0)"
     id="g3"
     style="fill:#aa0000">
    <path
       id="path2830"
       d="M 0 204.888 L 52.05 0 L 100.317 0 L 125.397 89.433 L 151.422 0 L 196.848 0 L 239.433 150.945 L 343.338 150.75 C 354.243 150.642 354.915 128.088 342.531 128.094 L 282.018 127.287 C 256.035 127.536 228.633 99.426 229.968 61.986 C 230.247 27.645 260.19 0.603 298.5 0.612 L 452.838 0.474 L 492.114 53.943 L 530.442 0 L 594.321 0.474 L 524.292 98.898 L 600 205.617 L 536.454 205.419 L 492.39 144.186 L 450.471 205.419 L 385.647 205.362 L 459.465 99.843 L 427.287 52.998 L 293.121 53.193 C 278.481 53.328 279.018 76.362 293.238 75.93 L 349.764 76.797 C 373.656 76.95 407.304 101.778 406.467 140.538 C 406.83 185.598 366.246 206.184 346.707 205.086 L 198.741 205.281 L 174.135 113.094 L 149.529 205.086 L 102.819 205.086 L 77.13 113.565 L 54.555 205.224 L 0 204.888 Z"
       style="fill:#aa0000"
       bx:origin="0 0" />
  </g>
</svg>
