<?xml version="1.0" encoding="UTF-8" standalone="no"?>
<svg
   xmlns:dc="http://purl.org/dc/elements/1.1/"
   xmlns:cc="http://creativecommons.org/ns#"
   xmlns:rdf="http://www.w3.org/1999/02/22-rdf-syntax-ns#"
   xmlns:svg="http://www.w3.org/2000/svg"
   xmlns="http://www.w3.org/2000/svg"
   xmlns:sodipodi="http://sodipodi.sourceforge.net/DTD/sodipodi-0.dtd"
   xmlns:inkscape="http://www.inkscape.org/namespaces/inkscape"
   version="1.1"
   id="svg2"
   sodipodi:docname="psx.svg"
   inkscape:version="1.0.1 (3bc2e813f5, 2020-09-07)">
  <metadata
     id="metadata12">
    <rdf:RDF>
      <cc:Work
         rdf:about="">
        <dc:format>image/svg+xml</dc:format>
        <dc:type
           rdf:resource="http://purl.org/dc/dcmitype/StillImage" />
      </cc:Work>
    </rdf:RDF>
  </metadata>
  <defs
     id="defs10" />
  <sodipodi:namedview
     pagecolor="#ffffff"
     bordercolor="#666666"
     borderopacity="1"
     objecttolerance="10"
     gridtolerance="10"
     guidetolerance="10"
     inkscape:pageopacity="0"
     inkscape:pageshadow="2"
     inkscape:window-width="1920"
     inkscape:window-height="1017"
     id="namedview8"
     showgrid="false"
     inkscape:zoom="3.9233333"
     inkscape:cx="150"
     inkscape:cy="75"
     inkscape:window-x="-8"
     inkscape:window-y="-8"
     inkscape:window-maximized="1"
     inkscape:current-layer="svg2" />
  <path
     id="path2998"
     d="m 79.664582,13.815772 v 13.744534 13.743222 h 2.42396 2.42352 V 29.034885 16.766242 h 2.97484 c 2.14632,0 3.11476,0.05769 3.47908,0.208469 0.71984,0.299374 1.45992,1.208421 1.76352,2.159862 0.15972,0.499976 0.2904,1.583403 0.33704,2.785269 0.09636,2.462731 -0.19052,3.992378 -0.94732,4.984464 -0.7898,1.036663 -1.27204,1.199243 -3.50284,1.199243 h -1.91532 v 1.490313 1.494247 l 3.00872,-0.05769 3.01048,-0.059 1.0648,-0.499539 c 1.94568,-0.912106 3.35764,-2.776527 3.92832,-5.178947 0.31812,-1.340845 0.31284,-4.339827 -0.01056,-5.779444 -0.31064,-1.384112 -0.95788,-2.777402 -1.68564,-3.620893 -0.3036,-0.35313 -0.89276,-0.85835 -1.30372,-1.121887 -1.41064,-0.898558 -1.95492,-0.954936 -8.82904,-0.954936 z m 21.419638,0 v 13.744534 13.743222 h 2.42396 2.42352 V 27.560306 13.815772 h -2.42352 z m 60.78116,0 c -2.17008,0 -4.40396,0.07604 -4.96408,0.165202 -1.26016,0.199291 -2.73284,0.861846 -3.5662,1.610936 -0.83996,0.753024 -1.5576,1.8854 -1.94436,3.075465 -0.24156,0.739912 -0.31724,1.414268 -0.3278,2.835528 -0.0132,1.960134 0.15356,2.794447 0.83116,4.114314 0.44088,0.859224 1.61656,2.099113 2.42352,2.562377 0.93676,0.53931 2.1362,0.825135 4.19672,0.990337 1.56772,0.126305 1.9338,0.203662 2.44376,0.53931 0.40128,0.262662 0.75284,0.694023 1.04984,1.294956 0.41888,0.84655 0.44264,1.022241 0.44,2.843395 -10e-4,1.815909 -0.0277,1.995534 -0.43076,2.757735 -0.27192,0.51702 -0.66572,0.971107 -1.07888,1.24251 l -0.64988,0.427864 -4.11884,0.04851 -4.11444,0.04327 v 1.470646 1.465402 h 4.67984 c 2.84812,0 5.00896,-0.06949 5.51232,-0.174379 1.91532,-0.401205 3.50944,-1.634538 4.2834,-3.315401 0.65252,-1.414268 0.88264,-2.869618 0.79684,-5.052643 -0.0889,-2.301463 -0.43208,-3.554025 -1.35828,-4.929396 -1.14884,-1.70796 -2.43408,-2.294471 -5.70064,-2.591222 -1.20868,-0.110135 -2.4464,-0.304182 -2.75176,-0.431361 -0.67232,-0.28364 -1.30108,-0.996019 -1.57696,-1.787065 -0.27456,-0.779245 -0.2706,-3.038753 0.009,-3.992378 0.27456,-0.943574 1.10968,-1.810665 1.98924,-2.073327 0.42416,-0.12718 1.85196,-0.188803 4.2548,-0.188803 h 3.62032 v -1.47589 -1.475891 z m 55.6996,0 v 2.019134 2.019134 h 2.42396 2.42396 v -2.019134 -2.019134 h -2.42396 z m -46.60656,3.105183 0.0502,9.90075 c 0.0422,9.745599 0.0488,9.914734 0.38588,10.799307 0.18744,0.492984 0.58916,1.232022 0.89276,1.643715 0.62216,0.841306 1.43044,1.430002 2.453,1.785754 0.4928,0.171757 1.32748,0.238625 2.91676,0.243869 l 2.22816,0.0092 v -1.474579 -1.47458 h -1.45552 c -1.38556,0 -1.4784,-0.01967 -1.87176,-0.427864 -0.24464,-0.253048 -0.48356,-0.747779 -0.57992,-1.204488 -0.10692,-0.49342 -0.15048,-3.059731 -0.12276,-7.066532 l 0.0436,-6.288597 2.61932,-0.04458 2.618,-0.04327 v -1.469335 -1.471958 h -2.6576 -2.6576 V 18.62937 16.920973 h -2.42792 z m 33.473,0 v 9.778815 c 0,9.458026 0.0119,9.813778 0.32384,10.755603 0.3696,1.120576 1.12376,2.231974 1.94436,2.852574 0.31284,0.237313 0.93236,0.557665 1.37764,0.708445 0.61952,0.212402 1.31296,0.277958 2.95988,0.281892 l 2.1494,0.0052 v -1.475891 -1.474579 h -1.38732 c -1.1594,0 -1.45288,-0.04982 -1.79212,-0.316419 -0.22484,-0.174379 -0.4796,-0.576021 -0.56804,-0.892002 -0.099,-0.354441 -0.16104,-3.146266 -0.16104,-7.217312 V 23.28822 h 2.66288 2.66288 l -0.0436,-1.436557 -0.0449,-1.436557 -2.61932,-0.04327 -2.61668,-0.04458 v -1.703152 -1.703153 h -2.42396 z m -4.2746,3.377461 -5.17528,0.08391 c -5.56336,0.08391 -6.13932,0.15209 -7.77348,0.974603 -1.82644,0.919974 -3.0998,2.705727 -3.67708,5.1536 -0.242,1.022241 -0.28424,1.901132 -0.28424,5.784688 0,4.411064 0.0132,4.616037 0.35684,5.460839 0.69344,1.700531 1.7248,2.75118 3.2098,3.260334 0.65516,0.225513 1.33804,0.276647 3.586,0.280581 l 2.77684,0.0052 V 39.82628 38.351701 h -1.94436 c -1.8414,0 -1.9668,-0.02229 -2.40416,-0.388531 -0.29084,-0.241247 -0.5258,-0.645511 -0.63536,-1.076871 -0.2178,-0.85704 -0.22836,-7.613709 -0.0145,-9.249994 0.30228,-2.325064 0.83072,-3.413735 1.92984,-3.998934 0.37884,-0.200603 1.03136,-0.273152 2.87276,-0.320352 l 2.38436,-0.06293 v 9.026665 9.022732 h 2.50316 2.50052 v -5.800421 c 0,-3.188222 -0.0502,-7.915268 -0.10692,-10.501245 z m -73.43116,0.0052 -5.19772,0.07736 c -5.6496,0.08653 -6.46184,0.188802 -8.0036,1.010004 -1.79256,0.952751 -3.07076,2.835528 -3.61108,5.313993 -0.34364,1.574226 -0.50336,8.021469 -0.23936,9.579087 0.23012,1.360512 0.87076,2.730201 1.6368,3.504203 0.56408,0.569465 1.49908,1.132376 2.28096,1.368378 0.2156,0.06556 1.67508,0.123246 3.24412,0.131113 l 2.8534,0.01442 v -1.475891 -1.473268 h -1.99848 c -2.25368,0 -2.54936,-0.106201 -2.97484,-1.068131 -0.19008,-0.429175 -0.264,-1.271355 -0.31284,-3.542225 -0.07,-3.227555 0.15576,-6.729573 0.5082,-7.892105 0.31592,-1.044093 0.90508,-1.846065 1.5972,-2.183025 0.506,-0.246491 0.97064,-0.294129 2.94536,-0.296751 l 2.34476,-0.0052 0.0396,8.968976 0.0396,8.967665 h 2.42396 2.42396 V 30.800972 Z m 5.21884,0.03409 c -1.408,0 -2.5586,0.01836 -2.55596,0.03933 0.003,0.02098 1.60996,4.708691 3.57148,10.419956 l 3.56796,10.384555 -2.00904,5.144421 c -1.1044,2.832906 -2.00772,5.169333 -2.00772,5.192933 0,0.0236 0.95876,0.0236 2.13048,0 l 2.13048,-0.04327 6.2282,-15.530288 c 3.4276,-8.541111 6.2348,-15.547332 6.2348,-15.56831 10e-4,-0.02098 -1.01068,-0.03933 -2.25236,-0.03933 -1.63768,0 -2.29152,0.05376 -2.37908,0.195358 -0.066,0.106201 -1.26412,3.125288 -2.6576,6.71078 -1.39348,3.58593 -2.59688,6.53946 -2.6774,6.566993 -0.0818,0.02622 -1.18888,-2.994174 -2.45696,-6.712528 l -2.30604,-6.760603 z m 85.62048,0 v 10.48289 10.481578 h 2.42396 2.42396 V 30.820639 20.337749 h -2.42396 z m 29.31632,0.07736 -0.0462,10.443556 h 0.007 l -0.0449,10.443555 h 2.50712 2.5014 v -9.021421 -9.026665 l 2.38304,0.06293 c 2.5322,0.06556 2.95504,0.170883 3.66564,0.926529 0.55748,0.593066 0.95612,1.67256 1.13344,3.076776 0.0924,0.734667 0.16632,4.11038 0.16632,7.649109 v 6.332738 h 2.42396 2.4222 l -0.005,-6.172781 c 0,-6.546889 -0.11616,-8.100574 -0.75152,-9.875838 -0.86372,-2.413783 -2.45432,-3.845533 -5.04196,-4.542178 -0.8558,-0.230758 -1.76968,-0.271403 -6.16176,-0.281892 z m -12.254,0.04458 c -1.36708,0 -2.7302,0.170447 -3.70788,0.50391 -1.30372,0.445782 -2.12124,0.966737 -2.94316,1.873599 -0.89012,0.983781 -1.53472,2.316759 -1.91356,3.945178 -0.23276,0.998204 -0.28688,1.836887 -0.27368,4.270337 0.0132,2.561066 0.0647,3.215755 0.34232,4.227507 0.47124,1.717576 1.0868,2.874426 2.02224,3.815377 0.9218,0.924781 2.2836,1.634974 3.81744,1.9798 0.68948,0.154713 1.6456,0.203225 3.10684,0.165202 2.51988,-0.06687 3.718,-0.388093 5.18848,-1.388045 1.232,-0.836936 2.1648,-2.156802 2.69324,-3.81931 0.75416,-2.373575 0.88748,-6.285975 0.30756,-9.172201 -0.28116,-1.402467 -0.96668,-2.923374 -1.73008,-3.849466 -0.71764,-0.869713 -1.89288,-1.632351 -3.1504,-2.047978 -1.01728,-0.333463 -2.3936,-0.50391 -3.75936,-0.50391 z m 0.0581,2.89147 c 0.70928,0 1.4212,0.136794 1.97868,0.417375 0.72776,0.366241 1.18624,1.005197 1.58224,2.212307 0.26048,0.789735 0.32516,1.508669 0.3872,4.120869 0.0792,3.411113 -0.0779,5.018553 -0.6116,6.230908 -0.37532,0.856602 -0.98252,1.52178 -1.65088,1.804983 -0.28556,0.121061 -1.03708,0.214151 -1.73448,0.214151 -0.98824,0 -1.36708,-0.06949 -1.91928,-0.358375 -0.43472,-0.228136 -0.85316,-0.619288 -1.1242,-1.053271 -0.70664,-1.133687 -0.93896,-2.618756 -0.9482,-5.964749 -0.008,-3.185599 0.15708,-4.466132 0.74888,-5.761088 0.19932,-0.439227 0.60368,-0.975915 0.90332,-1.204488 0.56936,-0.430049 1.47708,-0.658622 2.38832,-0.658622 z"
     style="fill:#aa0000;fill-opacity:1;stroke-width:0.438518" />
  <path
     id="path7"
     fill="#DE0029"
     d="m 38.608182,11.229794 -0.04752,42.76893 -11.5368,-3.72622 V 0 l 14.7268,3.8678217 c 9.42612,2.5164878 15.19452,7.4078623 15.10036,15.9804403 -0.09372,9.971114 -4.7366,13.977041 -13.7874,11.368774 V 11.554953 c -0.0013,-2.3761969 -4.45544,-2.5151763 -4.45544,-0.325159 z"
     style="fill:#aa0000;fill-opacity:1;stroke-width:1;stroke:#ffffff;stroke-miterlimit:4;stroke-dasharray:none" />
  <path
     id="path11"
     fill="#326DB3"
     d="m 65.480742,44.635099 -10.88032,-3.355171 3.00256,-1.024426 c 6.04956,-1.910311 3.51604,-3.960912 -2.76892,-2.796195 l -6.00204,2.005149 -10.27136,-3.169866 0.93808,-0.326907 c 5.72176,-1.9562 11.58432,-3.260334 17.54016,-2.840336 8.30192,0.604866 13.695,2.421649 14.4452,5.776821 0.46904,2.002089 -1.40668,4.147091 -5.81592,5.683731 z M 27.023862,29.819376 v 2.935174 l -4.54916,-1.397224 z m 21.71444,20.685635 -10.17764,-3.214444 V 46.73159 l 16.03844,-5.451662 10.88164,3.355171 z m -21.71444,-10.29671 v 3.447824 l -5.29936,-1.678241 z m 11.53548,-3.9124 10.27136,3.168555 -10.27136,3.493713 z m -22.93324,3.772984 -9.89516,-3.122228 c 0.09372,0 0.18788,-0.04589 0.23408,-0.04589 l 16.50836,-5.543441 4.54916,1.397224 v 3.260333 z m 6.09708,1.908999 5.29936,1.678241 v 3.214444 c -4.26756,1.491625 -8.9584,1.957511 -14.11652,1.119265 -5.53432,-0.884573 -12.7094,-1.631041 -12.89728,-4.752395 -0.18876,-3.075027 2.67388,-5.265045 5.72088,-6.290782 l 9.89648,3.122228 -2.62592,0.930462 c -3.2362,1.166465 -0.2354,4.008112 3.28372,2.797069 z m 16.92988,12.022151 -0.09372,-0.232069 v -6.476088 l 10.17764,3.214444 z"
     style="fill:#aa0000;fill-opacity:1;stroke-width:0.438518" />
</svg>
