<?xml version="1.0" encoding="UTF-8" standalone="no"?>
<!-- Created with Inkscape (http://www.inkscape.org/) -->

<svg
   xmlns:dc="http://purl.org/dc/elements/1.1/"
   xmlns:cc="http://creativecommons.org/ns#"
   xmlns:rdf="http://www.w3.org/1999/02/22-rdf-syntax-ns#"
   xmlns:svg="http://www.w3.org/2000/svg"
   xmlns="http://www.w3.org/2000/svg"
   xmlns:sodipodi="http://sodipodi.sourceforge.net/DTD/sodipodi-0.dtd"
   xmlns:inkscape="http://www.inkscape.org/namespaces/inkscape"
   width="162.41881mm"
   height="34.000004mm"
   viewBox="0 0 162.41881 34.000004"
   version="1.1"
   id="svg8"
   inkscape:version="0.92.5 (2060ec1f9f, 2020-04-08)"
   sodipodi:docname="retroachievements.svg">
  <defs
     id="defs2" />
  <sodipodi:namedview
     id="base"
     pagecolor="#ffffff"
     bordercolor="#666666"
     borderopacity="1.0"
     inkscape:pageopacity="0.0"
     inkscape:pageshadow="2"
     inkscape:zoom="0.7"
     inkscape:cx="422.17908"
     inkscape:cy="-68.803268"
     inkscape:document-units="mm"
     inkscape:current-layer="layer1"
     showgrid="false"
     fit-margin-top="0"
     fit-margin-left="0"
     fit-margin-right="0"
     fit-margin-bottom="0"
     inkscape:window-width="1440"
     inkscape:window-height="837"
     inkscape:window-x="0"
     inkscape:window-y="0"
     inkscape:window-maximized="1" />
  <metadata
     id="metadata5">
    <rdf:RDF>
      <cc:Work
         rdf:about="">
        <dc:format>image/svg+xml</dc:format>
        <dc:type
           rdf:resource="http://purl.org/dc/dcmitype/StillImage" />
        <dc:title></dc:title>
      </cc:Work>
    </rdf:RDF>
  </metadata>
  <g
     inkscape:label="Livello 1"
     inkscape:groupmode="layer"
     id="layer1"
     transform="translate(218.77261,-340.26591)">
    <path
       inkscape:connector-curvature="0"
       id="path920"
       d="m -203.73681,355.93465 c 0,-0.0254 0.75427,-0.85588 1.67614,-1.84564 1.16715,-1.25309 1.67614,-1.83005 1.67614,-1.90003 v -0.10044 l -2.48608,-0.011 c -1.84588,-0.009 -2.48609,-0.025 -2.48609,-0.0636 0,-0.0287 0.13295,-0.51429 0.29551,-1.07922 0.16252,-0.56494 0.28908,-1.08298 0.28123,-1.15123 l -0.0142,-0.12404 -2.75605,-0.011 c -1.81154,-0.007 -2.75607,-0.0271 -2.75607,-0.0569 0,-0.0433 0.52945,-1.9084 1.47506,-5.19618 l 0.44,-1.52989 0.93234,-0.0128 c 0.51278,-0.007 0.93234,-0.002 0.93234,0.007 0,0.0177 -0.25558,1.08485 -0.63687,2.65931 -0.19648,0.81127 -0.23214,1.00085 -0.2027,1.07755 0.0236,0.0616 0.23444,0.0699 1.75901,0.0699 1.61314,0 1.73516,-0.006 1.77497,-0.0798 0.0236,-0.0439 0.26966,-0.86907 0.54699,-1.83363 0.27733,-0.96457 0.52437,-1.77887 0.54898,-1.80959 0.0344,-0.0429 0.60641,-0.0586 2.48064,-0.0675 l 2.43589,-0.011 0.0141,-0.0958 c 0.01,-0.0727 -0.25321,-0.37201 -1.08957,-1.23741 l -1.10325,-1.14157 0.92111,-0.0128 0.92112,-0.0128 0.86452,0.8896 c 0.4755,0.48928 1.02844,1.05666 1.22878,1.26082 l 0.36425,0.37123 2.35945,9e-5 2.35945,9e-5 0.74134,-0.77627 c 0.40776,-0.42695 0.95446,-0.99445 1.21492,-1.26113 l 0.47358,-0.48485 0.91163,0.0128 0.91162,0.0128 -1.06911,1.11937 c -0.58802,0.61566 -1.08591,1.14824 -1.10643,1.18352 -0.022,0.038 -0.0151,0.0908 0.0168,0.12928 0.0451,0.0543 0.2958,0.0652 1.52221,0.0652 0.80747,3e-5 1.87919,0.0141 2.38159,0.0297 0.7805,0.0253 0.91922,0.0403 0.95292,0.10326 0.0217,0.0405 0.26262,0.84896 0.53536,1.79648 0.27275,0.94755 0.51988,1.75169 0.54919,1.78699 0.0447,0.054 0.32754,0.0624 1.76844,0.0524 l 1.7152,-0.011 0.0141,-0.0971 c 0.007,-0.0533 -0.16278,-0.85319 -0.37866,-1.77737 -0.2159,-0.9242 -0.40158,-1.73604 -0.41267,-1.80409 l -0.0201,-0.12378 h 0.92274 c 0.69709,0 0.92782,0.0141 0.94354,0.0563 0.011,0.0309 0.17658,0.61308 0.36695,1.29366 1.09319,3.9079 1.49599,5.3808 1.4797,5.41088 -0.01,0.0186 -1.22952,0.0337 -2.70992,0.0337 -2.38766,0 -2.69825,0.009 -2.75012,0.0704 -0.0489,0.059 -0.006,0.25383 0.26448,1.20556 0.17762,0.62433 0.32292,1.15147 0.32292,1.17144 0,0.0199 -1.13896,0.0297 -2.53107,0.0216 -2.49419,-0.0145 -2.53123,-0.0141 -2.54223,0.0742 -0.009,0.0633 0.49191,0.61764 1.72113,1.90915 0.95275,1.00104 1.73229,1.83629 1.73229,1.85612 0,0.0197 -0.63901,0.0359 -1.42003,0.0359 h -1.42002 l -0.19441,-0.19124 c -0.10694,-0.1051 -0.89657,-0.96565 -1.75473,-1.91213 -0.9354,-1.03167 -1.59986,-1.72885 -1.65907,-1.74077 -0.0543,-0.011 -1.852,-0.0309 -3.99479,-0.0445 -3.04909,-0.0192 -3.91094,-0.0128 -3.96474,0.0309 -0.0378,0.0306 -0.78245,0.86537 -1.65474,1.8553 -0.87231,0.98993 -1.63556,1.84544 -1.69613,1.90112 -0.10939,0.10043 -0.12043,0.10117 -1.52503,0.10117 -0.93532,0 -1.41488,-0.0157 -1.41488,-0.046 z m 6.41272,-8.11555 c 0.10277,-0.15682 0.0812,-3.20268 -0.0232,-3.26857 -0.10584,-0.067 -3.56838,-0.0573 -3.63575,0.01 -0.04,0.04 -0.0541,0.46626 -0.0541,1.63918 0,1.38107 0.009,1.59428 0.0708,1.65589 0.0618,0.0618 0.28987,0.0706 1.82135,0.0706 h 1.75062 z m 11.51533,0.0364 c 0.0616,-0.0616 0.0708,-0.27129 0.0708,-1.61732 v -1.54664 l -0.10007,-0.07 c -0.0862,-0.0605 -0.33391,-0.07 -1.79695,-0.07 -0.99368,0 -1.74478,0.0183 -1.81236,0.0439 l -0.1154,0.0439 v 1.59626 c 0,1.47279 0.006,1.59982 0.0787,1.64213 0.0497,0.0289 0.72819,0.0465 1.84163,0.0473 1.54388,0.001 1.77173,-0.007 1.83364,-0.0693 z"
       style="fill:#aa0000;stroke:#ffffff;stroke-width:0;stroke-miterlimit:4;stroke-dasharray:none;stroke-opacity:1" />
    <g
       aria-label="RETRO"
       style="font-style:normal;font-variant:normal;font-weight:normal;font-stretch:normal;font-size:23.84308815px;line-height:1.25;font-family:'Motter Tektura';-inkscape-font-specification:'Motter Tektura';letter-spacing:2.22932863px;word-spacing:0px;fill:#aa0000;fill-opacity:1;stroke:none;stroke-width:0.5960772"
       id="text950">
      <path
         d="m -160.30512,355.52548 h -4.9832 l -1.09679,-4.43481 h -0.97756 l -0.76298,4.43481 h -4.53019 l 2.62274,-14.90193 h 7.15293 q 4.07717,0 4.07717,3.64799 0,1.50212 -0.45302,2.86118 -0.83451,2.57505 -2.62274,3.4334 z m -5.88924,-11.08703 -0.52455,2.98038 h 1.0491 q 0.81066,0 1.21599,-0.1669 0.42918,-0.19074 0.57224,-1.02525 0.1669,-0.85835 0.1669,-1.0491 0,-0.47686 -0.38149,-0.59608 -0.35765,-0.14305 -1.19215,-0.14305 z"
         style="font-style:normal;font-variant:normal;font-weight:normal;font-stretch:normal;font-family:'Changa One';-inkscape-font-specification:'Changa One';text-align:center;letter-spacing:2.22932863px;text-anchor:middle;fill:#aa0000;stroke-width:0.5960772"
         id="path1689"
         inkscape:connector-curvature="0" />
      <path
         d="m -146.10658,349.89851 h -4.53019 l -0.30996,1.81208 h 5.55544 l -0.66761,3.81489 h -10.08562 l 2.62274,-14.90193 h 9.96641 l -1.23984,3.8149 h -4.88784 l -0.3338,2.00282 h 4.53019 z"
         style="font-style:normal;font-variant:normal;font-weight:normal;font-stretch:normal;font-family:'Changa One';-inkscape-font-specification:'Changa One';text-align:center;letter-spacing:2.22932863px;text-anchor:middle;fill:#aa0000;stroke-width:0.5960772"
         id="path1691"
         inkscape:connector-curvature="0" />
      <path
         d="m -129.333,344.43845 h -3.29035 l -1.93129,11.08703 h -4.53018 l 1.93129,-11.08703 h -3.26651 l 0.69145,-3.8149 h 11.08704 z"
         style="font-style:normal;font-variant:normal;font-weight:normal;font-stretch:normal;font-family:'Changa One';-inkscape-font-specification:'Changa One';text-align:center;letter-spacing:2.22932863px;text-anchor:middle;fill:#aa0000;stroke-width:0.5960772"
         id="path1693"
         inkscape:connector-curvature="0" />
      <path
         d="m -114.77684,355.52548 h -4.98321 l -1.09678,-4.43481 h -0.97756 l -0.76298,4.43481 h -4.53019 l 2.62274,-14.90193 h 7.15293 q 4.07716,0 4.07716,3.64799 0,1.50212 -0.45301,2.86118 -0.83451,2.57505 -2.62274,3.4334 z m -5.88924,-11.08703 -0.52455,2.98038 h 1.0491 q 0.81066,0 1.21599,-0.1669 0.42918,-0.19074 0.57224,-1.02525 0.1669,-0.85835 0.1669,-1.0491 0,-0.47686 -0.38149,-0.59608 -0.35765,-0.14305 -1.19216,-0.14305 z"
         style="font-style:normal;font-variant:normal;font-weight:normal;font-stretch:normal;font-family:'Changa One';-inkscape-font-specification:'Changa One';text-align:center;letter-spacing:2.22932863px;text-anchor:middle;fill:#aa0000;stroke-width:0.5960772"
         id="path1695"
         inkscape:connector-curvature="0" />
      <path
         d="m -104.67932,345.60676 -1.09678,6.1992 h 1.88361 q 0.92988,0 1.38289,-0.21459 0.45302,-0.23843 0.59608,-1.04909 l 1.09678,-6.19921 h -1.90744 q -0.90604,0 -1.35906,0.23843 -0.45302,0.21459 -0.59608,1.02526 z m 2.74196,-5.34085 q 3.028071,0 4.315598,1.19215 1.287526,1.16831 1.287526,3.62415 0,2.45584 -0.786821,5.15011 -0.762979,2.67042 -2.455839,4.17254 -1.669014,1.47827 -4.911674,1.47827 -3.21882,0 -4.50635,-1.16831 -1.28752,-1.19216 -1.28752,-3.648 0,-1.16831 0.3338,-3.07575 0.3338,-1.93129 0.8822,-3.31419 0.54839,-1.40675 1.47827,-2.432 1.78823,-1.97897 5.65081,-1.97897 z"
         style="font-style:normal;font-variant:normal;font-weight:normal;font-stretch:normal;font-family:'Changa One';-inkscape-font-specification:'Changa One';text-align:center;letter-spacing:2.22932863px;text-anchor:middle;fill:#aa0000;stroke-width:0.5960772"
         id="path1697"
         inkscape:connector-curvature="0" />
    </g>
    <g
       aria-label="ACHIEVEMENTS"
       style="font-style:normal;font-variant:normal;font-weight:normal;font-stretch:normal;font-size:23.84308815px;line-height:1.25;font-family:'Motter Tektura';-inkscape-font-specification:'Motter Tektura';letter-spacing:11.47448635px;word-spacing:0px;fill:#aa0000;fill-opacity:1;stroke:none;stroke-width:0.5960772"
       id="text1621">
      <path
         d="m -214.004,373.90826 h -4.76861 l 6.27073,-14.90193 h 7.00987 l 1.04909,14.90193 h -4.79246 l -0.0954,-2.36046 h -3.74337 z m 4.07717,-10.32405 -1.66901,4.17254 h 1.90744 v -4.17254 z"
         style="font-style:normal;font-variant:normal;font-weight:normal;font-stretch:normal;font-family:'Changa One';-inkscape-font-specification:'Changa One';letter-spacing:0px;fill:#aa0000;stroke-width:0.5960772"
         id="path1700"
         inkscape:connector-curvature="0" />
      <path
         d="m -192.61676,369.64035 -0.38149,4.00564 q -1.52596,0.61992 -3.86258,0.61992 -3.00423,0 -4.3156,-1.16831 -1.28753,-1.16831 -1.28753,-3.60031 0,-1.02525 0.3338,-3.02807 0.7153,-4.10101 2.45584,-5.96077 1.76439,-1.85976 5.55544,-1.85976 0.8822,0 2.00282,0.19074 1.14447,0.1669 1.66902,0.42918 l -1.33522,3.64799 q -1.40674,-0.3338 -2.64658,-0.3338 -1.216,0 -1.74054,0.23843 -0.52455,0.23843 -0.64377,0.95372 l -1.09678,6.24689 q 0.85835,0.19075 1.76439,0.19075 1.93129,0 3.52878,-0.57224 z"
         style="font-style:normal;font-variant:normal;font-weight:normal;font-stretch:normal;font-family:'Changa One';-inkscape-font-specification:'Changa One';letter-spacing:0px;fill:#aa0000;stroke-width:0.5960772"
         id="path1702"
         inkscape:connector-curvature="0" />
      <path
         d="m -183.00805,373.90826 0.90604,-5.26932 h -3.40956 l -0.90604,5.26932 h -4.53018 l 2.62274,-14.90193 h 4.53018 l -0.92988,5.26933 h 3.40956 l 0.92988,-5.26933 h 4.53019 l -2.62274,14.90193 z"
         style="font-style:normal;font-variant:normal;font-weight:normal;font-stretch:normal;font-family:'Changa One';-inkscape-font-specification:'Changa One';letter-spacing:0px;fill:#aa0000;stroke-width:0.5960772"
         id="path1704"
         inkscape:connector-curvature="0" />
      <path
         d="m -175.64054,373.90826 2.62274,-14.90193 h 4.53019 l -2.62274,14.90193 z"
         style="font-style:normal;font-variant:normal;font-weight:normal;font-stretch:normal;font-family:'Changa One';-inkscape-font-specification:'Changa One';letter-spacing:0px;fill:#aa0000;stroke-width:0.5960772"
         id="path1706"
         inkscape:connector-curvature="0" />
      <path
         d="m -158.25895,368.2813 h -4.53018 l -0.30996,1.81207 h 5.55543 l -0.6676,3.81489 h -10.08563 l 2.62274,-14.90193 h 9.96641 l -1.23984,3.8149 h -4.88783 l -0.3338,2.00282 h 4.53018 z"
         style="font-style:normal;font-variant:normal;font-weight:normal;font-stretch:normal;font-family:'Changa One';-inkscape-font-specification:'Changa One';letter-spacing:0px;fill:#aa0000;stroke-width:0.5960772"
         id="path1708"
         inkscape:connector-curvature="0" />
      <path
         d="m -145.57445,359.00633 h 4.79246 l -6.12767,14.90193 h -6.62838 l -0.8822,-14.90193 h 5.03089 v 9.46571 h 0.21459 z"
         style="font-style:normal;font-variant:normal;font-weight:normal;font-stretch:normal;font-family:'Changa One';-inkscape-font-specification:'Changa One';letter-spacing:0px;fill:#aa0000;stroke-width:0.5960772"
         id="path1710"
         inkscape:connector-curvature="0" />
      <path
         d="m -131.74549,368.2813 h -4.53019 l -0.30996,1.81207 h 5.55544 l -0.6676,3.81489 h -10.08563 l 2.62274,-14.90193 h 9.96641 l -1.23984,3.8149 h -4.88783 l -0.33381,2.00282 h 4.53019 z"
         style="font-style:normal;font-variant:normal;font-weight:normal;font-stretch:normal;font-family:'Changa One';-inkscape-font-specification:'Changa One';letter-spacing:0px;fill:#aa0000;stroke-width:0.5960772"
         id="path1712"
         inkscape:connector-curvature="0" />
      <path
         d="m -124.85487,373.90826 h -4.72093 l 3.48109,-14.90193 h 5.91308 l 0.42918,7.58211 h 0.1669 l 3.0996,-7.58211 h 5.91309 l -1.76439,14.90193 h -4.74477 l 1.00141,-7.22445 h -0.16691 l -2.98038,7.22445 h -3.45725 l -0.50071,-7.22445 h -0.11921 z"
         style="font-style:normal;font-variant:normal;font-weight:normal;font-stretch:normal;font-family:'Changa One';-inkscape-font-specification:'Changa One';letter-spacing:0px;fill:#aa0000;stroke-width:0.5960772"
         id="path1714"
         inkscape:connector-curvature="0" />
      <path
         d="m -99.771964,368.2813 h -4.530186 l -0.30996,1.81207 h 5.555439 l -0.667607,3.81489 H -109.8099 l 2.62274,-14.90193 h 9.966407 l -1.239841,3.8149 h -4.887836 l -0.3338,2.00282 h 4.530187 z"
         style="font-style:normal;font-variant:normal;font-weight:normal;font-stretch:normal;font-family:'Changa One';-inkscape-font-specification:'Changa One';letter-spacing:0px;fill:#aa0000;stroke-width:0.5960772"
         id="path1716"
         inkscape:connector-curvature="0" />
      <path
         d="m -88.851856,373.90826 -2.431995,-5.29316 q -0.09537,-0.1669 -0.09537,-0.45302 0,-0.30996 0.04769,-0.69145 h -0.190745 l -1.120625,6.43763 h -4.530186 l 2.622739,-14.90193 h 4.267913 l 2.431995,5.29317 q 0.07153,0.1669 0.07153,0.47686 0,0.28612 -0.04769,0.66761 h 0.190745 l 1.144468,-6.43764 h 4.530187 l -2.62274,14.90193 z"
         style="font-style:normal;font-variant:normal;font-weight:normal;font-stretch:normal;font-family:'Changa One';-inkscape-font-specification:'Changa One';letter-spacing:0px;fill:#aa0000;stroke-width:0.5960772"
         id="path1718"
         inkscape:connector-curvature="0" />
      <path
         d="m -69.610511,362.82123 h -3.290346 l -1.931291,11.08703 h -4.530186 l 1.93129,-11.08703 h -3.266503 l 0.691449,-3.8149 h 11.087036 z"
         style="font-style:normal;font-variant:normal;font-weight:normal;font-stretch:normal;font-family:'Changa One';-inkscape-font-specification:'Changa One';letter-spacing:0px;fill:#aa0000;stroke-width:0.5960772"
         id="path1720"
         inkscape:connector-curvature="0" />
      <path
         d="m -70.06358,373.64599 1.335213,-3.93411 q 2.002819,0.54839 3.671835,0.54839 1.669016,0 2.694269,-0.14306 l 0.190745,-1.19215 -1.978977,-0.19075 q -2.265093,-0.21458 -3.218816,-1.02525 -0.929881,-0.81066 -0.929881,-2.28894 0,-0.64376 0.143059,-1.43058 0.548391,-3.05192 1.978976,-4.19638 1.454428,-1.14447 4.482501,-1.14447 3.028072,0 5.340851,0.59607 l -1.23984,3.8149 q -2.074349,-0.35765 -3.338033,-0.35765 -1.263683,0 -2.145878,0.11922 l -0.190744,1.16831 1.597487,0.1669 q 2.431995,0.26228 3.457247,1.16831 1.025253,0.8822 1.025253,2.38431 0,1.52596 -0.667606,3.14729 -0.333804,0.83451 -0.739136,1.40674 -0.381489,0.54839 -1.00141,0.95372 -0.596077,0.38149 -1.096782,0.59608 -0.500705,0.19075 -1.263683,0.28612 -1.120626,0.1669 -2.741956,0.1669 -2.956543,0 -5.364694,-0.61992 z"
         style="font-style:normal;font-variant:normal;font-weight:normal;font-stretch:normal;font-family:'Changa One';-inkscape-font-specification:'Changa One';letter-spacing:0px;fill:#aa0000;stroke-width:0.5960772"
         id="path1722"
         inkscape:connector-curvature="0" />
    </g>
    <flowRoot
       xml:space="preserve"
       id="flowRoot1625"
       style="font-style:normal;font-variant:normal;font-weight:normal;font-stretch:normal;font-size:40px;line-height:1.25;font-family:'Motter Tektura';-inkscape-font-specification:'Motter Tektura';letter-spacing:19.25px;word-spacing:0px;fill:#000000;fill-opacity:1;stroke:none"
       transform="scale(0.26458333)"><flowRegion
         id="flowRegion1627"><rect
           id="rect1629"
           width="509.11688"
           height="307.08636"
           x="169.70563"
           y="1631.6366" /></flowRegion><flowPara
         id="flowPara1631"></flowPara></flowRoot>  </g>
</svg>
