<?xml version="1.0" encoding="UTF-8" standalone="no"?>
<svg
   xmlns:dc="http://purl.org/dc/elements/1.1/"
   xmlns:cc="http://creativecommons.org/ns#"
   xmlns:rdf="http://www.w3.org/1999/02/22-rdf-syntax-ns#"
   xmlns:svg="http://www.w3.org/2000/svg"
   xmlns="http://www.w3.org/2000/svg"
   xmlns:sodipodi="http://sodipodi.sourceforge.net/DTD/sodipodi-0.dtd"
   xmlns:inkscape="http://www.inkscape.org/namespaces/inkscape"
   version="1.1"
   id="svg18"
   sodipodi:docname="tg16cd.svg"
   inkscape:version="1.0.1 (3bc2e813f5, 2020-09-07)">
  <metadata
     id="metadata24">
    <rdf:RDF>
      <cc:Work
         rdf:about="">
        <dc:format>image/svg+xml</dc:format>
        <dc:type
           rdf:resource="http://purl.org/dc/dcmitype/StillImage" />
      </cc:Work>
    </rdf:RDF>
  </metadata>
  <defs
     id="defs22" />
  <sodipodi:namedview
     pagecolor="#ffffff"
     bordercolor="#666666"
     borderopacity="1"
     objecttolerance="10"
     gridtolerance="10"
     guidetolerance="10"
     inkscape:pageopacity="0"
     inkscape:pageshadow="2"
     inkscape:window-width="1920"
     inkscape:window-height="1017"
     id="namedview20"
     showgrid="false"
     inkscape:zoom="3.9233333"
     inkscape:cx="150"
     inkscape:cy="75"
     inkscape:window-x="-8"
     inkscape:window-y="-8"
     inkscape:window-maximized="1"
     inkscape:current-layer="svg18" />
  <path
     fill="none"
     d="m 246.67229,43.965028 h 7.89385 V 28.601907 h -7.89385 z M 242.72537,15.28951 c -10.89765,0 -19.73247,9.169595 -19.73247,20.481555 0,11.313078 8.8359,20.48379 19.73247,20.48379 10.89872,0 19.73246,-9.17183 19.73246,-20.48379 8.2e-4,-11.31196 -8.83374,-20.481555 -19.73246,-20.481555 z m -0.98512,15.362004 h -1.97454 V 29.62671 l -0.98619,-1.024803 h -7.89277 v 15.363121 h 7.89277 l 0.98619,-1.024804 v -1.023686 h 1.97454 v 2.04849 l -1.97454,2.047373 h -9.86623 l -0.98619,-1.023686 V 27.57822 l 0.98619,-1.023687 h 9.86623 l 1.97454,2.047374 z m 14.79827,13.313514 -1.97238,2.047373 h -10.8535 v -2.047373 h 0.98619 V 28.601907 h -0.98619 v -2.047374 h 10.8535 l 1.97238,2.047374 z"
     id="path2"
     style="fill:#aa0000;stroke-width:0.365635" />
  <polygon
     points="29.718,8.749 21.021,8.749 21.021,127.503 10.509,127.503 10.509,8.749 0,8.749 0,0 29.718,0 "
     id="polygon5"
     style="fill:#aa0000;fill-opacity:1"
     transform="scale(0.44,0.442055)" />
  <path
     d="m 24.9216,52.520997 h 5.10444 V 15.741579 h 4.46424 v 36.779418 c 0,2.381792 -2.1516,4.066464 -4.35864,4.066464 H 24.9216 c -2.33112,0 -4.41144,-1.906584 -4.41144,-4.114206 V 15.741579 h 4.41144 z"
     id="path7"
     style="fill:#aa0000;fill-opacity:1;stroke-width:0.441026" />
  <path
     d="m 120.92256,24.72502 h 6.8178 v 31.899573 h -9.60828 c -2.05392,0 -4.58436,-1.581231 -4.58436,-3.978937 V 4.4262967 c 0,-2.0259381 2.112,-4.18316645 4.48404,-4.18316645 h 5.24304 c 2.32584,0 4.4352,2.13866205 4.4352,4.13675065 V 15.802582 h -4.59492 V 4.5390207 h -5.22192 V 52.681905 h 5.34204 V 28.629692 h -2.31264 z"
     id="path9"
     style="fill:#aa0000;fill-opacity:1;stroke-width:0.441026" />
  <path
     d="m 186.85128,37.047745 v 19.33416 h -4.30452 V 19.351842 c 0,-1.673178 1.65528,-3.496213 3.74748,-3.496213 h 7.09632 v 3.569152 h -6.53928 v 13.682486 h 5.38428 v 3.957719 z"
     id="path11"
     style="fill:#aa0000;fill-opacity:1;stroke-width:0.441026" />
  <path
     d="m 202.12104,15.866238 h 4.51836 v 14.749165 l 2.55156,2.578065 2.49744,-2.50601 v -14.82122 h 4.46424 v 14.033036 c 0,1.712521 -4.41012,6.227671 -4.41012,6.227671 0,0 4.46424,4.512055 4.46424,6.340395 v 13.996787 h -4.20024 V 41.891342 l -2.70996,-2.755329 -2.71128,2.719523 v 14.608591 h -4.46424 V 42.500494 c 0,-1.716942 4.72824,-6.409356 4.72824,-6.409356 0,0 -4.72824,-4.463429 -4.72824,-6.262151 z"
     id="path13"
     style="fill:#aa0000;fill-opacity:1;stroke-width:0.441026" />
  <path
     d="m 53.83884,37.139251 c 1.51404,0 3.52836,-1.820383 3.52836,-4.256106 V 19.573311 c 0,-1.91454 -2.17272,-3.69779 -4.64508,-3.69779 H 43.5534 v 40.669502 h 4.22664 V 37.437638 h 1.59456 l 4.70316,19.035772 h 4.14612 z M 53.00196,33.16164 H 47.93844 V 19.815999 h 5.06352 z"
     id="path15"
     style="fill:#aa0000;fill-opacity:1;stroke-width:0.441026" />
  <path
     d="m 147.36348,37.033158 c 1.51536,0 3.531,-1.823035 3.531,-4.257432 V 19.465892 c 0,-1.91454 -2.17536,-3.700442 -4.64508,-3.700442 h -9.16872 v 40.67348 h 4.22268 V 37.328892 h 1.59588 l 4.7058,19.034447 h 4.1448 z m -0.8976,-4.022701 h -5.05956 v -13.34564 h 5.05956 z"
     id="path17"
     style="fill:#aa0000;fill-opacity:1;stroke-width:0.441026" />
  <path
     d="m 79.96032,38.097184 c -0.01848,-1.823035 -1.91136,-2.974588 -1.91136,-2.974588 0,0 1.91136,-1.244385 1.91136,-2.974588 V 19.732451 c 0,-2.342891 -2.0526,-3.867539 -4.1448,-3.867539 h -9.64788 v 40.599215 h 9.64788 c 1.9536,0 4.1448,-1.225818 4.1448,-3.866213 0,0 0.02244,-12.68079 0,-14.50073 z M 75.6162,52.486516 H 70.554 V 37.35409 h 5.0622 z m 0,-19.334159 H 70.554 V 19.806716 h 5.0622 z"
     id="path19"
     style="fill:#aa0000;fill-opacity:1;stroke-width:0.441026" />
  <path
     d="m 98.439,15.565199 h -2.55156 -2.47236 c -2.53176,0 -4.37448,2.174468 -4.37448,3.82908 v 32.972882 c 0,2.130706 2.36148,4.063812 4.35468,4.063812 h 5.46216 c 2.13312,0 4.26492,-2.212927 4.26492,-3.978937 V 19.282881 c 0,-1.486189 -2.013,-3.717682 -4.68336,-3.717682 z M 98.5974,52.23985 H 93.7068 V 19.581268 h 4.8906 z"
     id="path21"
     style="fill:#aa0000;fill-opacity:1;stroke-width:0.441026" />
  <path
     d="m 169.35996,15.855629 h -5.57832 c -2.51328,0 -3.98772,2.081637 -3.98772,3.717682 v 36.808594 h 4.22532 v -19.33416 h 5.34072 v 19.33416 h 4.22664 V 19.796107 c -0.001,-2.427766 -1.67244,-3.940478 -4.22664,-3.940478 z m -0.12144,17.177373 h -5.05956 V 19.945964 h 5.05956 z"
     id="path23"
     style="fill:#aa0000;fill-opacity:1;stroke-width:0.441026" />
</svg>
