<?xml version="1.0" encoding="UTF-8" standalone="no"?>
<svg
   xmlns:dc="http://purl.org/dc/elements/1.1/"
   xmlns:cc="http://creativecommons.org/ns#"
   xmlns:rdf="http://www.w3.org/1999/02/22-rdf-syntax-ns#"
   xmlns:svg="http://www.w3.org/2000/svg"
   xmlns="http://www.w3.org/2000/svg"
   xmlns:sodipodi="http://sodipodi.sourceforge.net/DTD/sodipodi-0.dtd"
   xmlns:inkscape="http://www.inkscape.org/namespaces/inkscape"
   version="1.1"
   id="svg28"
   sodipodi:docname="zxspectrum.svg"
   inkscape:version="0.92.5 (2060ec1f9f, 2020-04-08)">
  <metadata
     id="metadata34">
    <rdf:RDF>
      <cc:Work
         rdf:about="">
        <dc:format>image/svg+xml</dc:format>
        <dc:type
           rdf:resource="http://purl.org/dc/dcmitype/StillImage" />
      </cc:Work>
    </rdf:RDF>
  </metadata>
  <defs
     id="defs32" />
  <sodipodi:namedview
     pagecolor="#ffffff"
     bordercolor="#666666"
     borderopacity="1"
     objecttolerance="10"
     gridtolerance="10"
     guidetolerance="10"
     inkscape:pageopacity="0"
     inkscape:pageshadow="2"
     inkscape:window-width="1440"
     inkscape:window-height="837"
     id="namedview30"
     showgrid="false"
     inkscape:zoom="5.5484312"
     inkscape:cx="178.84148"
     inkscape:cy="73.703215"
     inkscape:window-x="0"
     inkscape:window-y="0"
     inkscape:window-maximized="1"
     inkscape:current-layer="svg28" />
  <path
     d="M 0.264,24.3738 V 20.77284 H 28.46712 V 16.66236 H 0.264 L 0.0858,5.5704 h 32.043 V 9.16212 H 3.92568 l 0.17688,3.90852 H 32.30568 V 24.37512 H 0.264 Z"
     id="path5"
     style="fill:#aa0000;fill-opacity:1;stroke-width:0.44;stroke-opacity:1" />
  <path
     d="M 34.62624,24.3738 V 5.64036 H 38.4648 V 24.3738 Z"
     id="path7"
     style="fill:#aa0000;fill-opacity:1;stroke-width:0.44;stroke-opacity:1" />
  <path
     d="M 40.52532,24.3738 V 5.64036 h 32.043 V 24.3738 H 68.72844 V 9.23208 H 44.36388 v 15.14436 l -3.83856,-0.0026 z"
     id="path9"
     style="fill:#aa0000;fill-opacity:1;stroke-width:0.44;stroke-opacity:1" />
  <path
     d="M 74.61696,24.3738 V 5.64036 H 106.6824 V 9.2334 H 78.4806 v 11.53944 h 28.2018 v 3.6036 H 74.61696 Z"
     id="path11"
     style="fill:#aa0000;fill-opacity:1;stroke-width:0.44;stroke-opacity:1" />
  <path
     d="M 109.23792,24.3738 V 0 h 3.83988 v 24.37512 h -3.83988 z"
     id="path13"
     style="fill:#aa0000;fill-opacity:1;stroke-width:0.44;stroke-opacity:1" />
  <path
     d="M 149.4768,24.3738 V 5.64036 h 3.86232 V 24.3738 Z"
     id="path15"
     style="fill:#aa0000;fill-opacity:1;stroke-width:0.44;stroke-opacity:1" />
  <path
     d="M 155.65836,24.3738 V 5.64036 h 32.04168 V 9.2334 h -28.2018 v 15.14304 h -3.83988 z"
     id="path17"
     style="fill:#aa0000;fill-opacity:1;stroke-width:0.44;stroke-opacity:1" />
  <path
     d="M 115.12644,5.64036 V 9.2334 h 28.2018 v 4.10784 h -28.2018 v 11.03388 h 32.06544 V 5.64036 Z m 28.2018,15.13248 h -24.3408 v -4.11048 h 24.3408 z"
     id="path19"
     style="fill:#aa0000;fill-opacity:1;stroke-width:0.44;stroke-opacity:1" />
  <path
     d="M 34.62624,3.6036 V 0 h 3.83856 v 3.6036 z"
     id="path21"
     style="fill:#aa0000;fill-opacity:1;stroke-width:0.44;stroke-opacity:1" />
  <path
     d="M 149.4768,3.6036 V 0 h 3.86232 v 3.6036 z"
     id="path23"
     style="fill:#aa0000;fill-opacity:1;stroke-width:0.44;stroke-opacity:1" />
  <path
     d="m 0,37.356 4.51176,-5.39484 h -4.158 v -1.55364 h 6.6198 v 1.45992 L 2.4618,37.26228 h 4.62924 v 1.55496 H 0 Z"
     id="path27"
     style="fill:#aa0000;fill-opacity:1;stroke-width:0.44;stroke-opacity:1" />
  <path
     d="M 10.23792,34.41108 7.52796,30.4062 h 2.14368 l 1.65,2.6862 1.70808,-2.6862 h 2.0262 l -2.69808,4.01676 2.93304,4.39428 h -2.20176 l -1.83876,-2.90928 -1.87308,2.90928 h -2.0856 z"
     id="path29"
     style="fill:#aa0000;fill-opacity:1;stroke-width:0.44;stroke-opacity:1" />
  <path
     d="m 20.56956,36.02676 c 0,1.11804 0.8712,1.55364 1.8612,1.55364 0.64812,0 1.63812,-0.18744 1.63812,-1.04808 0,-0.90684 -1.2606,-1.05996 -2.49744,-1.38996 -1.24872,-0.33 -2.50932,-0.8118 -2.50932,-2.39184 0,-1.71996 1.62624,-2.54364 3.14556,-2.54364 1.7556,0 3.36864,0.76428 3.36864,2.70864 H 23.7864 c -0.0594,-1.01376 -0.77748,-1.27116 -1.66056,-1.27116 -0.59004,0 -1.27248,0.24684 -1.27248,0.95436 0,0.64812 0.40128,0.72996 2.50932,1.27116 0.61248,0.15312 2.49744,0.54252 2.49744,2.44992 0,1.54308 -1.21308,2.69808 -3.49932,2.69808 -1.8612,0 -3.6036,-0.91872 -3.57984,-2.99112 z"
     id="path31"
     style="fill:#aa0000;fill-opacity:1;stroke-width:0.44;stroke-opacity:1" />
  <path
     d="m 26.77752,32.72808 h 1.5906 v 0.77748 h 0.02376 c 0.39996,-0.64812 1.05996,-0.94248 1.81368,-0.94248 1.90872,0 2.76804,1.54308 2.76804,3.2736 0,1.62624 -0.89496,3.14556 -2.673,3.14556 -0.73128,0 -1.4256,-0.31812 -1.82688,-0.91872 h -0.02376 v 2.89872 h -1.67244 z m 4.52364,3.06108 c 0,-0.96492 -0.3894,-1.9668 -1.46124,-1.9668 -1.0956,0 -1.44804,0.97812 -1.44804,1.9668 0,0.99 0.3762,1.93248 1.46124,1.93248 1.09428,0 1.44804,-0.94248 1.44804,-1.93248 z"
     id="path33"
     style="fill:#aa0000;fill-opacity:1;stroke-width:0.44;stroke-opacity:1" />
  <path
     d="m 35.35488,36.17856 c 0.0462,1.05996 0.56496,1.54308 1.49556,1.54308 0.67056,0 1.21308,-0.41184 1.31868,-0.78936 h 1.4718 c -0.47124,1.43616 -1.4718,2.04864 -2.84988,2.04864 -1.9206,0 -3.10992,-1.31868 -3.10992,-3.20364 0,-1.82688 1.2606,-3.21684 3.10992,-3.21684 2.0724,0 3.07428,1.74504 2.9568,3.6168 z M 38.0754,35.1186 c -0.15312,-0.84876 -0.51876,-1.29492 -1.33188,-1.29492 -1.05996,0 -1.3662,0.82368 -1.38996,1.29492 z"
     id="path35"
     style="fill:#aa0000;fill-opacity:1;stroke-width:0.44;stroke-opacity:1" />
  <path
     d="m 44.88396,34.87044 c -0.10692,-0.68244 -0.5412,-1.04676 -1.23684,-1.04676 -1.07184,0 -1.4256,1.0824 -1.4256,1.97736 0,0.87252 0.34056,1.9206 1.38996,1.9206 0.77748,0 1.22496,-0.495 1.33056,-1.23552 h 1.61304 c -0.21252,1.61304 -1.33056,2.49612 -2.93304,2.49612 -1.83744,0 -3.0756,-1.29492 -3.0756,-3.1218 0,-1.89552 1.13124,-3.29868 3.10992,-3.29868 1.4388,0 2.75748,0.75372 2.86308,2.31 z"
     id="path37"
     style="fill:#aa0000;fill-opacity:1;stroke-width:0.44;stroke-opacity:1" />
  <path
     d="m 49.62012,32.72808 h 1.22496 v 1.11804 h -1.22496 v 3.0162 c 0,0.56628 0.14124,0.70752 0.7062,0.70752 0.1782,0 0.34188,-0.01188 0.51876,-0.04884 v 1.30812 c -0.28248,0.04752 -0.64812,0.0594 -0.9768,0.0594 -1.02564,0 -1.9206,-0.23628 -1.9206,-1.44936 v -3.59172 h -1.01376 v -1.11936 h 1.01376 V 30.9012 h 1.67244 z"
     id="path39"
     style="fill:#aa0000;fill-opacity:1;stroke-width:0.44;stroke-opacity:1" />
  <path
     d="m 51.64632,32.72808 h 1.5906 v 1.13124 h 0.02376 c 0.30624,-0.76692 1.13124,-1.29624 1.94436,-1.29624 0.11748,0 0.25872,0.02376 0.36432,0.06072 v 1.55364 c -0.15312,-0.03564 -0.39996,-0.0594 -0.6006,-0.0594 -1.22364,0 -1.64868,0.88308 -1.64868,1.95492 v 2.7456 h -1.67244 z"
     id="path41"
     style="fill:#aa0000;fill-opacity:1;stroke-width:0.44;stroke-opacity:1" />
  <path
     d="m 61.94232,38.81724 h -1.5906 v -0.84876 h -0.03564 c -0.42372,0.68376 -1.155,1.01376 -1.8612,1.01376 -1.77936,0 -2.22684,-1.00056 -2.22684,-2.508 V 32.72808 H 57.9018 V 36.168 c 0,1.00056 0.29436,1.49556 1.07184,1.49556 0.90684,0 1.29492,-0.50688 1.29492,-1.74372 V 32.72808 H 61.941 Z"
     id="path43"
     style="fill:#aa0000;fill-opacity:1;stroke-width:0.44;stroke-opacity:1" />
  <path
     d="m 63.26232,32.72808 h 1.57872 v 0.82368 h 0.02376 c 0.4356,-0.62568 1.07184,-0.99 1.8612,-0.99 0.7656,0 1.44804,0.28248 1.77804,1.01376 0.35376,-0.53064 0.99,-1.01376 1.83744,-1.01376 1.29624,0 2.22684,0.6006 2.22684,2.17932 v 4.07616 h -1.67244 v -3.4518 c 0,-0.8118 -0.06996,-1.48368 -1.02432,-1.48368 -0.94248,0 -1.11936,0.77748 -1.11936,1.54308 v 3.3924 h -1.67376 v -3.41616 c 0,-0.70752 0.04752,-1.51932 -1.01376,-1.51932 -0.32868,0 -1.12992,0.2112 -1.12992,1.40184 v 3.53364 h -1.67244 z"
     id="path45"
     style="fill:#aa0000;fill-opacity:1;stroke-width:0.44;stroke-opacity:1" />
  <polygon
     points="427.632,65.919 491.244,2.301 455.04,2.301 391.431,65.919 "
     id="polygon49"
     style="fill:#aa0000;fill-opacity:1;stroke-opacity:1;stroke:none;stroke-width:2.27272727;stroke-miterlimit:4;stroke-dasharray:none"
     transform="scale(0.44)" />
  <polygon
     points="527.529,2.301 491.325,2.301 427.713,65.919 463.917,65.919 "
     id="polygon51"
     style="fill:#aa0000;fill-opacity:1;stroke:none;stroke-width:2.27272725;stroke-miterlimit:4;stroke-dasharray:none;stroke-opacity:1"
     transform="matrix(0.44,0,0,0.44,0.90115565,0)" />
  <polygon
     points="527.58,2.301 463.971,65.919 500.175,65.919 563.784,2.301 "
     id="polygon53"
     style="fill:#aa0000;fill-opacity:1;stroke:none;stroke-width:2.27272725;stroke-miterlimit:4;stroke-dasharray:none;stroke-opacity:1"
     transform="matrix(0.44,0,0,0.44,1.8023112,0)" />
  <polygon
     points="600,2.301 563.799,2.301 500.187,65.919 536.391,65.919 "
     id="polygon55"
     style="fill:#aa0000;fill-opacity:1;stroke:none;stroke-width:2.27272725;stroke-miterlimit:4;stroke-dasharray:none;stroke-opacity:1"
     transform="matrix(0.44,0,0,0.44,2.7034667,0)" />
</svg>
